<svg width="556" height="680" viewBox="0 0 556 680" fill="none" xmlns="http://www.w3.org/2000/svg">
<path d="M172.785 112.586C123.778 93.3215 74.7717 53.1023 64.6324 49.0466C54.4931 44.9909 97.0781 19.3047 124.792 25.3883C152.506 31.4719 149.126 67.9733 149.126 76.0847C149.126 76.0847 155.886 65.2695 170.757 71.3531C185.628 77.4366 189.684 100.419 189.684 111.234C189.684 122.049 180.551 115.641 172.785 112.586Z" fill="#F3E7D9"/>
<path d="M532.723 329.357C532.723 329.357 438.454 283.791 395.247 258.653C352.041 233.514 344.97 205.232 341.827 190.307C338.684 175.382 341.043 162.025 378.747 180.878C378.747 180.878 370.109 165.169 383.459 148.669C396.816 132.169 428.241 148.669 443.166 169.096C458.091 189.523 458.875 193.45 458.875 193.45C458.875 193.45 469.873 175.382 486.373 180.878C502.873 186.373 507.584 230.371 495.011 243.728C495.011 243.728 509.152 240.585 528.004 259.437C546.857 278.289 559.43 294.005 553.927 301.076C548.425 308.146 533.5 308.146 516.216 297.148C516.216 297.148 552.352 330.141 552.352 334.86C552.359 339.571 532.723 329.357 532.723 329.357Z" fill="#F3E7D9"/>
<path d="M140.433 386.34C133.16 377.681 120.019 361.999 120.019 361.999C120.019 361.999 100.187 381.115 93.5288 387.496C86.4516 394.276 72.554 404.523 78.9891 405.294C85.4647 406.064 92.9407 404.726 94.955 404.145C94.955 404.145 95.8271 423.997 122.527 419.259C148.24 414.69 148.349 395.763 140.433 386.34Z" fill="#1D2538"/>
<path d="M94.3534 400.021C94.3534 400.021 46.1986 445.519 47.6654 449.825C49.1795 454.273 83.6666 462.405 105.561 436.793C123.899 415.345 125.292 391.518 94.3534 400.021Z" fill="#1D2538"/>
<path d="M63.6112 452.59C61.0156 454.07 7.99386 508.065 8.42647 516.271C8.88612 524.883 35.7553 536.753 59.8665 519.665C81.8214 504.111 98.2132 432.879 63.6112 452.59Z" fill="#1D2538"/>
<path d="M420.176 387.145L487.277 438.781C487.277 438.781 481.62 443.262 465.998 439.72L379.078 459.471L420.176 387.145Z" fill="#1D2538"/>
<path d="M461.794 431.751L514.031 476.445C514.031 476.445 490.833 495.25 468.107 475.12C461.611 469.368 382.727 475.377 382.727 475.377L417.742 428.114C417.742 428.114 450.965 429.358 461.794 431.751Z" fill="#1D2538"/>
<path d="M496.768 478.75C499.134 479.744 519.825 494.371 543.125 514.217C543.125 514.217 515.715 535.212 497.052 527.263C478.376 519.307 462.612 464.372 496.768 478.75Z" fill="#1D2538"/>
<path d="M337.223 332.196L380.693 382.737C380.693 382.737 375.421 386.563 363.828 383.393L291.474 394.296L337.223 332.196Z" fill="#1D2538"/>
<path d="M356.338 374.301L394.131 409.938C394.131 409.938 341.528 486.084 327.468 468.549C323.447 463.541 291.359 408.045 291.359 408.045L327.644 367.535C327.658 367.528 348.301 372.159 356.338 374.301Z" fill="#1D2538"/>
<path d="M380.158 411.797C381.828 412.675 395.32 425.437 409.887 442.735C409.887 442.735 384.464 460.641 371.317 453.645C358.163 446.649 356.067 399.143 380.158 411.797Z" fill="#1D2538"/>
<path d="M321.834 241.355C321.834 241.355 335.353 165.649 268.433 149.426C201.514 133.203 179.559 184.866 175.828 196.066C168.392 218.373 168.392 231.892 168.392 231.892L321.834 241.355Z" fill="#C94039"/>
<path d="M319.441 233.379C319.441 233.379 298.98 203.827 249.913 191.93C200.846 180.033 192.099 191.214 190.01 193.532C185.197 198.879 185.197 217.866 185.197 217.866C185.197 217.866 220.61 210.458 256.598 214.392C303.131 219.475 319.441 233.379 319.441 233.379Z" fill="#EE5D4F"/>
<path d="M168.224 232.324C167.555 242.457 189.706 250.629 248.155 253.968C306.605 257.314 321.834 246.763 321.834 241.605C322.503 231.473 287.922 221.104 255.591 217.704C217.062 213.641 168.893 222.192 168.224 232.324Z" fill="#1D2538"/>
<path d="M178.795 224.376L179.268 224.2C179.261 224.092 177.733 213.797 186.203 187.719C194.828 161.174 224.442 148.804 224.732 148.676L223.529 149L222.826 149.203C222.536 149.331 194.315 162.202 185.825 187.739C177.402 213.074 178.788 224.268 178.795 224.376Z" fill="#1D2538"/>
<path d="M268.804 203.61C254.133 203.61 242.239 191.716 242.239 177.045C242.239 162.373 254.133 150.48 268.804 150.48C283.476 150.48 295.369 162.373 295.369 177.045C295.369 191.716 283.476 203.61 268.804 203.61Z" fill="#EE5D4F"/>
<path d="M259.983 201.474C244.117 201.474 231.255 188.612 231.255 172.746C231.255 156.88 244.117 144.018 259.983 144.018C275.849 144.018 288.711 156.88 288.711 172.746C288.711 188.612 275.849 201.474 259.983 201.474Z" fill="#34283A"/>
<path d="M263.362 198.094C247.496 198.094 234.634 185.232 234.634 169.366C234.634 153.5 247.496 140.638 263.362 140.638C279.228 140.638 292.09 153.5 292.09 169.366C292.09 185.232 279.228 198.094 263.362 198.094Z" fill="#1689CB"/>
<path d="M265.052 192.01C251.613 192.01 240.718 181.116 240.718 167.676C240.718 154.237 251.613 143.342 265.052 143.342C278.492 143.342 289.387 154.237 289.387 167.676C289.387 181.116 278.492 192.01 265.052 192.01Z" fill="#29ABE2"/>
<path d="M265.729 188.631C253.783 188.631 244.098 178.947 244.098 167.001C244.098 155.054 253.783 145.37 265.729 145.37C277.675 145.37 287.359 155.054 287.359 167.001C287.359 178.947 277.675 188.631 265.729 188.631Z" fill="#665070"/>
<path d="M263.464 187.671C253.198 187.671 244.875 179.349 244.875 169.082C244.875 158.816 253.198 150.494 263.464 150.494C273.73 150.494 282.053 158.816 282.053 169.082C282.053 179.349 273.73 187.671 263.464 187.671Z" fill="#FEED7F"/>
<path d="M248.959 177.775C255.914 189.219 269.508 184.433 269.508 184.433L248.31 160.565C248.31 160.565 242.003 166.331 248.959 177.775Z" fill="#F7BC4B"/>
<path d="M253.656 132.561L266.492 1" stroke="#F7BC4B" stroke-miterlimit="10"/>
<path d="M314.627 148.608L407.686 31.4854" stroke="#F7BC4B" stroke-miterlimit="10"/>
<path d="M277.727 130.959L313.025 55.5493" stroke="#F7BC4B" stroke-miterlimit="10"/>
<path d="M345.113 129.356C345.113 129.356 327.464 79.6197 266.493 82.8237" stroke="#F7BC4B" stroke-miterlimit="10"/>
<path d="M448.511 118.481L441.292 148.966L446.902 143.349L452.52 117.676L448.511 118.481Z" fill="#3E4C6F"/>
<path d="M437.811 120.975L430.592 151.46L436.209 145.843L441.826 120.177L437.811 120.975Z" fill="#3E4C6F"/>
<path d="M438.974 119.731L445.389 142.193L440.576 149.412L433.357 128.552L434.959 155.029L422.927 152.623L429.342 120.529L438.974 119.731Z" fill="#1D2538"/>
<path d="M443.145 246.08C452.169 239.794 454.954 172.645 454.399 153.563C453.865 135.353 454.075 142.491 454.075 142.491C454.075 142.491 455.008 138.563 446.91 138.563C438.812 138.563 438.819 138.793 437.798 141.335C436.771 143.89 436.095 148.115 435.047 149.764C433.992 151.427 432.14 152.022 430.457 151.981C428.774 151.941 431.255 149.054 426.226 149.054C421.197 149.054 419.358 148.108 417.945 154.05C416.505 160.072 405.974 211.519 405.825 216.805C405.67 222.159 414.194 223.754 421.129 225.261C425.658 226.248 433.107 236.462 434.175 239.402C435.229 242.336 439.305 248.757 443.145 246.08Z" fill="#1D2538"/>
<path d="M425.334 220.009C425.334 220.009 423.996 239.794 411.964 250.224C399.932 260.654 389.367 264.399 389.367 264.399" stroke="#4B3355" stroke-width="3" stroke-miterlimit="10"/>
<path d="M427.74 220.009C427.74 220.009 426.936 241.666 414.904 252.096C402.872 262.526 391.773 264.399 391.773 264.399" stroke="#665070" stroke-width="3" stroke-miterlimit="10"/>
<path d="M415.559 209.14C415.559 209.14 412.287 228.627 400.201 238.996C388.115 249.359 376.401 255.841 376.401 255.841" stroke="#665070" stroke-width="3" stroke-miterlimit="10"/>
<path d="M419.033 209.403C419.033 209.403 415.762 228.891 403.676 239.26C391.59 249.622 379.875 256.105 379.875 256.105" stroke="#4B3355" stroke-width="3" stroke-miterlimit="10"/>
<path d="M424.914 212.884C424.914 212.884 421.642 232.372 409.556 242.741C397.47 253.103 385.756 259.586 385.756 259.586" stroke="#4B3355" stroke-width="3" stroke-miterlimit="10"/>
<path d="M432.775 131.499C432.775 131.499 421.041 136.995 417.932 135.17C414.822 133.345 411.699 130.12 409.428 125.443C407.157 120.765 404.987 117.825 406.947 115.905C408.908 113.992 411.03 112.032 411.03 112.032C411.03 112.032 408.982 113.62 407.15 111.288C405.318 108.956 399.478 98.0127 400.478 95.1196C401.479 92.2265 403.75 88.1235 404.642 86.8392C405.535 85.5549 406.285 86.4134 406.285 86.4134C406.285 86.4134 406.251 82.9119 407.88 81.0801C409.509 79.2483 412.551 78.1059 412.551 78.1059C412.551 78.1059 412.443 75.6725 414.322 74.1313C416.201 72.5901 417.006 72.6442 420.52 71.637C424.035 70.6299 426.3 70.569 426.3 70.569C426.3 70.569 428.997 68.4601 430.477 68.0748C431.958 67.6895 439.136 66.2564 442.327 68.4127C445.524 70.5623 451.324 78.0113 453.656 84.9465C455.988 91.8818 458.806 110.112 455.832 117.561C452.858 125.017 440.306 130.06 432.775 131.499Z" fill="#992C29"/>
<path d="M422.988 121.428C422.988 121.428 413.403 130.425 411.443 126.646C409.807 123.483 407.786 119.637 407.786 119.637C407.786 119.637 407.171 117.933 407.509 116.629C407.847 115.324 409.733 114.121 409.733 114.121C408.232 112.215 402.629 104.367 403.453 101.994C404.271 99.6218 406.13 96.2623 406.86 95.2146C407.59 94.1669 408.205 94.8631 408.205 94.8631C408.205 94.8631 408.178 91.9971 409.51 90.4965C410.842 88.9958 413.336 88.063 413.336 88.063C413.336 88.063 413.248 86.0757 414.789 84.8117C416.33 83.5477 416.986 83.595 419.866 82.7703C422.745 81.9456 424.597 81.8983 424.597 81.8983C424.597 81.8983 426.808 80.1747 428.018 79.857C429.227 79.5393 435.108 78.3699 437.724 80.1341C440.34 81.8983 445.092 87.9954 447.005 93.6802C448.918 99.3649 451.027 106.652 446.43 111.343C442.882 114.973 433.662 113.506 422.988 121.428Z" fill="#C94039"/>
<path d="M428.747 69.0146C428.747 69.0146 424.454 72.7662 424.387 75.0239C424.319 77.2815 427.929 89.638 429.105 93.1529C430.281 96.6679 430.721 97.3371 433.019 98.0603C435.317 98.7836 439.17 97.9049 439.17 97.9049C439.17 97.9049 437.886 99.0269 434.763 99.1824C431.64 99.3379 429.862 97.5601 429.085 97.1072C428.307 96.6543 427.341 92.9501 426.415 89.3743C425.482 85.7986 422.893 76.8625 422.508 75.3821C422.122 73.9018 423.853 70.9479 428.747 69.0146Z" fill="#121721"/>
<path d="M412.694 77.9844C412.694 77.9844 413.032 82.9864 415.871 92.8689C416.797 96.0931 417.581 100.94 422.306 100.061C425.307 99.1282 430.647 97.3639 430.647 97.3639L430.891 97.9588C430.891 97.9588 426.889 99.7906 424.212 100.622C421.529 101.453 419.217 101.663 417.777 100.189C416.337 98.7158 413.674 89.6716 412.89 85.136C412.106 80.5936 410.896 79.5053 412.694 77.9844Z" fill="#121721"/>
<path d="M406.279 86.4066C406.279 86.4066 409.28 97.9181 410.307 101.338C411.328 104.759 413.565 105.583 417.107 107.557L415.999 107.672C415.999 107.672 410.517 105.327 409.679 102.123C408.841 98.9185 405.495 86.1633 405.495 86.1633C405.495 86.1633 405.636 86.1024 405.9 86.1633C406.157 86.2241 406.279 86.4066 406.279 86.4066Z" fill="#121721"/>
<path d="M409.287 114.114C409.287 114.114 416.087 107.868 419.338 105.699C422.59 103.529 425.672 105.759 426.591 107.76C427.504 109.761 430.208 112.019 428.099 114.02C425.996 116.02 421.522 117.967 419.25 119.826C419.25 119.826 419.453 119.981 420.068 121.55C420.683 123.118 421.664 123.436 421.664 123.436L420.163 119.833C420.163 119.833 429.471 114.783 429.64 112.898C429.809 111.012 427.456 107.544 426.105 105.394C424.753 103.245 422.035 103.427 418.473 105.408C414.911 107.382 409.287 114.114 409.287 114.114Z" fill="#121721"/>
<path d="M414.904 264.797C403.238 264.797 393.78 255.34 393.78 243.674C393.78 232.008 403.238 222.55 414.904 222.55C426.57 222.55 436.027 232.008 436.027 243.674C436.027 255.34 426.57 264.797 414.904 264.797Z" fill="#992C29"/>
<path d="M419.182 253.029C414.9 253.029 411.429 249.558 411.429 245.276C411.429 240.994 414.9 237.522 419.182 237.522C423.464 237.522 426.936 240.994 426.936 245.276C426.936 249.558 423.464 253.029 419.182 253.029Z" fill="#4B3355"/>
<path d="M433.357 218.136C433.357 218.136 432.019 237.921 419.987 248.351C407.955 258.781 397.39 262.526 397.39 262.526" stroke="#856792" stroke-width="3" stroke-miterlimit="10"/>
<path d="M439.238 217.068C439.238 217.068 437.9 236.853 425.868 247.283C413.836 257.713 403.271 261.458 403.271 261.458" stroke="#BB83C3" stroke-width="3" stroke-miterlimit="10"/>
<path d="M437.365 222.28C437.365 222.28 434.688 248.352 422.657 258.782C410.625 269.212 400.059 272.956 400.059 272.956" stroke="#665070" stroke-width="3" stroke-miterlimit="10"/>
<path d="M320.155 273.179C326.293 267.481 322.819 268.644 353.527 253.746C372.305 244.634 386.351 239.929 392.753 238.003C395.139 237.286 399.296 238.517 399.857 241.707C401.128 248.886 402.25 253.327 404.311 257.159C406.339 260.918 408.185 262.344 411.368 260.661C414.43 259.039 418.331 254.665 419.48 259.066C420.609 263.412 420.798 273.632 417.013 276.154C408.678 281.717 360.199 314.034 339.062 319.185C314.964 325.059 313.828 279.06 320.155 273.179Z" fill="#C94039"/>
<path d="M344.456 276.918C348.843 273.017 342.57 274.39 364.782 263.953C378.551 257.484 388.934 254.05 393.692 252.631C395.47 252.097 398.579 252.894 398.998 255.091C399.952 260.053 400.79 263.128 402.344 265.771C403.872 268.374 405.265 269.354 407.671 268.144C409.989 266.981 412.943 263.879 413.822 266.947C414.694 269.989 414.85 277.168 411.977 278.966C405.65 282.92 369.324 305.173 353.919 309.053C345.639 311.155 339.947 280.926 344.456 276.918Z" fill="#EE5D4F"/>
<path d="M420.014 267.833L331.342 314.818" stroke="#1D2538" stroke-width="0.5" stroke-miterlimit="10"/>
<path d="M315.464 266.63C315.464 266.63 329.463 259.701 331.423 264.737C332.512 277.418 339.454 301.908 345.902 318.678C344.037 321.132 334.884 328.283 327.415 325.843C319.594 323.295 315.464 266.63 315.464 266.63Z" fill="#F7BC4B"/>
<path d="M330.524 299.258C333.255 297.541 334.648 294.31 334.06 291.133C332.181 280.939 329.828 260.654 331.423 264.744C332.512 277.424 339.454 301.914 345.902 318.685C344.037 321.138 334.884 328.29 327.415 325.85C323.373 324.532 320.865 301.035 320.865 301.035C325.631 300.887 328.253 300.684 330.524 299.258Z" fill="#FEED7F"/>
<path d="M444.841 244.911C455.156 237.901 459.009 164.939 457.184 146.479C455.521 129.654 456.164 136.157 456.164 136.157C456.164 136.157 456.9 132.561 448.471 132.561C440.096 132.561 440.11 132.771 439.157 135.076C438.19 137.408 437.656 141.294 436.622 142.822C435.581 144.363 433.668 144.904 431.91 144.863C430.16 144.816 432.647 142.153 427.436 142.133C422.244 142.112 420.338 141.24 418.973 146.722C417.567 152.366 407.813 201.366 405.805 216.088C408.813 214.939 415.64 216.028 424.387 220.137C433.276 224.315 439.082 230.669 440.732 236.354C442.415 242.126 440.434 247.906 444.841 244.911Z" fill="#C94039"/>
<path d="M414.37 169.198L416.418 158.409C416.418 158.409 438.88 151.636 457.779 160.904L457.421 172.314C457.421 172.321 435.047 161.715 414.37 169.198Z" fill="#F7BC4B"/>
<path d="M457.158 177.62L457.293 173.875C457.293 173.875 445.383 169.448 435.5 168.664C423.732 167.731 413.843 171.469 413.843 171.469L413.174 175.349C413.174 175.349 421.515 171.029 435.291 172.003C441.543 172.449 448.925 174.402 457.158 177.62Z" fill="#F7BC4B"/>
<path d="M446.362 241.781C452.074 225.085 454.858 185.603 454.858 185.603C454.858 185.603 455.521 182.358 447.923 182.358C440.373 182.358 425.279 190.564 421.318 195.134C413.74 203.867 410.529 212.783 411.956 213.493C413.382 214.203 420.027 215.73 427.915 219.434C435.932 223.199 441.17 228.932 442.657 234.062C444.172 239.267 444.807 246.337 446.362 241.781Z" fill="#EE5D4F"/>
<path d="M449.757 132.561C453.799 140.057 453.765 175.727 449.398 202.624C446.073 223.125 439.773 233.913 439.773 233.913" stroke="#1D2538" stroke-width="0.5" stroke-miterlimit="10"/>
<path d="M320.481 266.271C320.481 266.271 305.002 242.741 254.191 238.996C194.653 232.933 166.364 254.874 166.364 254.874L115.674 537.084L348.621 530.237L320.481 266.271Z" fill="#992C29"/>
<path d="M329.87 353.983C329.87 353.983 292.969 329.114 240.82 329.114C188.67 329.114 148.654 353.449 148.654 353.449L141.61 392.133C141.61 392.133 187.872 368.421 237.609 367.623C287.346 366.826 334.236 394.276 334.236 394.276L329.87 353.983Z" fill="#F7BC4B"/>
<path d="M335.528 407.592C335.528 407.592 295.221 385.4 239.178 385.4C183.135 385.4 139.205 407.011 139.205 407.011L132.249 442.579C132.249 442.579 196.073 415.305 236.718 415.663C277.363 416.021 339.584 442.796 339.584 442.796L335.528 407.592Z" fill="#F7BC4B"/>
<path d="M315.007 288.192C315.007 288.192 305.165 276.721 264.892 273.753C211.41 283.379 137.603 465.751 137.603 465.751C137.603 465.751 181.459 447.034 237.617 446.229C293.775 445.425 337.631 474.309 337.631 474.309L315.007 288.192Z" fill="#EE5D4F"/>
<path d="M169.669 395.594C169.669 395.594 165.417 403.976 160.868 413.48C157.089 421.375 153.155 430.054 150.83 435.212C241.36 383.934 333.445 440.612 333.445 440.612L329.133 404.557C329.133 404.557 288.968 385.617 237.433 385.894C203.919 386.07 183.952 391.592 169.669 395.594Z" fill="#FEED7F"/>
<path d="M322.476 349.69L327.553 390.795C327.553 390.795 305.267 374.572 257.004 370.428C208.734 366.285 178.877 377.783 178.877 377.783C178.877 377.783 190.618 354.787 204.725 332.859C204.725 332.852 256.334 316.541 322.476 349.69Z" fill="#FEED7F"/>
<path d="M162.208 274.828C162.208 274.828 192.693 247.283 250.541 251.907C271.705 253.597 296.087 260.208 321.232 275.369" stroke="#1D2538" stroke-width="0.5" stroke-miterlimit="10"/>
<path d="M297.6 263.506L300.635 328.708" stroke="#1D2538" stroke-width="0.5" stroke-miterlimit="10"/>
<path d="M328.863 346.013L328.998 346.128L328.957 345.648C328.957 345.648 323.083 339.909 311.477 333.683C300.764 327.944 282.905 320.664 258.652 318.583C204.427 313.918 160.639 329.513 150.682 342.207L150.553 342.917L150.756 342.667C160.267 329.986 204.15 314.236 258.625 318.914C282.824 320.996 300.642 328.249 311.322 333.974C322.881 340.179 328.802 345.952 328.863 346.013Z" fill="#1D2538"/>
<path d="M138.671 454.26C138.671 454.26 183.148 420.503 242.422 425.376C288.144 429.134 320.508 440.619 335.684 452.671" stroke="#1D2538" stroke-width="0.5" stroke-miterlimit="10"/>
<path d="M239.576 251.474L239.218 283.92C239.218 283.92 211.004 284.325 199.999 286.772C183.952 290.334 180.39 292.477 180.39 292.477L183.242 262.168C183.242 262.168 209.604 250.494 239.576 251.474Z" stroke="#1D2538" stroke-width="0.5" stroke-miterlimit="10"/>
<path d="M181.816 276.789C181.816 276.789 168.98 280.709 164.701 284.63" stroke="#1D2538" stroke-width="0.5" stroke-miterlimit="10"/>
<path d="M239.218 276.789C239.218 276.789 273.09 274.653 298.404 287.482" stroke="#1D2538" stroke-width="0.5" stroke-miterlimit="10"/>
<path d="M180.39 292.477L178.159 326.924" stroke="#1D2538" stroke-width="0.5" stroke-miterlimit="10"/>
<path d="M40.2652 118.481L47.4844 148.966L41.8672 143.349L36.2568 117.676L40.2652 118.481Z" fill="#3E4C6F"/>
<path d="M50.9586 120.975L58.1846 151.46L52.5674 145.843L46.9502 120.177L50.9586 120.975Z" fill="#3E4C6F"/>
<path d="M49.8025 119.732L43.3877 142.194L48.2005 149.413L55.4197 128.553L53.8109 155.03L65.8496 152.624L59.4281 120.53L49.8025 119.732Z" fill="#1D2538"/>
<path d="M65.5589 220.63C68.9048 219.765 71.0273 217.007 70.8245 213.952C69.9526 200.703 68.0802 167.717 67.9045 165.52C67.6949 162.836 66.4511 160.214 62.2738 159.477C58.1234 158.747 52.9929 158.747 52.4522 156.577C51.9249 154.448 52.513 150.912 48.9237 150.656C45.3412 150.399 40.4405 149.561 38.5005 151.338C35.8643 153.751 24.9747 199.419 23.6228 220.461C22.0343 245.201 41.9411 257.152 43.4755 254.867C44.9829 252.616 38.318 247.33 44.1582 231.797C47.5718 222.705 59.8403 222.111 65.5589 220.63Z" fill="#1D2538"/>
<path d="M44.0101 210.917C44.0101 210.917 45.3485 230.702 57.3805 241.132C69.4124 251.562 79.9775 255.306 79.9775 255.306" stroke="#4B3355" stroke-width="3" stroke-miterlimit="10"/>
<path d="M41.6038 210.917C41.6038 210.917 42.4082 232.574 54.4402 243.004C66.4721 253.434 77.5713 255.306 77.5713 255.306" stroke="#665070" stroke-width="3" stroke-miterlimit="10"/>
<path d="M56.596 197.235C56.596 197.235 59.8676 216.723 71.9536 227.092C84.0397 237.455 95.7539 243.937 95.7539 243.937" stroke="#665070" stroke-width="3" stroke-miterlimit="10"/>
<path d="M53.1145 197.506C53.1145 197.506 56.3861 216.994 68.4722 227.363C80.5582 237.725 92.2725 244.207 92.2725 244.207" stroke="#4B3355" stroke-width="3" stroke-miterlimit="10"/>
<path d="M44.429 203.792C44.429 203.792 47.7006 223.28 59.7867 233.649C71.8727 244.011 83.5869 250.494 83.5869 250.494" stroke="#4B3355" stroke-width="3" stroke-miterlimit="10"/>
<path d="M60.5569 135.846C60.5569 135.846 72.5416 140.517 75.4955 138.495C78.4494 136.474 81.3154 133.068 83.2419 128.289C85.1684 123.503 87.1151 120.441 85.0399 118.683C82.9715 116.926 80.7341 115.135 80.7341 115.135C80.7341 115.135 82.8701 116.561 84.5262 114.127C86.1823 111.694 91.2046 100.46 90.0149 97.6679C88.8252 94.8695 86.2972 90.9692 85.3238 89.7593C84.3504 88.5493 83.6677 89.4483 83.6677 89.4483C83.6677 89.4483 83.4582 85.9807 81.721 84.2841C79.9838 82.5874 76.8947 81.6681 76.8947 81.6681C76.8947 81.6681 76.8339 79.255 74.8669 77.8558C72.8998 76.4565 72.109 76.5647 68.5602 75.8144C65.0115 75.0641 62.7673 75.1587 62.7673 75.1587C62.7673 75.1587 59.9486 73.2593 58.4615 72.9821C56.9676 72.705 49.7687 71.779 46.754 74.1313C43.7392 76.4836 38.5141 84.2435 36.6823 91.2734C34.8505 98.3033 33.316 116.534 36.7769 123.699C40.231 130.857 53.0065 134.947 60.5569 135.846Z" fill="#992C29"/>
<path d="M67.6207 127.2C67.6207 127.2 76.2459 132.101 78.3414 131.621C80.4368 131.141 81.8022 130.215 83.3028 126.47C84.8034 122.725 86.3311 120.332 84.7088 118.953C83.0865 117.574 83.0054 117.291 84.3032 115.391C85.601 113.485 89.5284 104.698 88.5955 102.514C87.6627 100.324 85.689 97.2757 84.9251 96.3226C84.1613 95.3695 83.6273 96.0792 83.6273 96.0792C83.6273 96.0792 83.465 93.3686 82.1064 92.037C80.7477 90.7054 78.3346 89.9889 78.3346 89.9889C78.3346 89.9889 78.2872 88.103 76.7461 87.0079C75.2049 85.9129 74.5898 86.0008 71.8116 85.4127C69.0402 84.8246 67.2827 84.899 67.2827 84.899C67.2827 84.899 65.0791 83.4119 63.9165 83.1956C62.7539 82.9793 57.1164 82.256 54.7574 84.0946C52.3983 85.9332 48.3088 92.01 46.8757 97.5055C45.4427 103.008 44.5099 108.517 47.2137 114.12C49.9175 119.724 57.7653 118.379 67.6207 127.2Z" fill="#C94039"/>
<path d="M60.233 73.7798C60.233 73.7798 64.7348 77.1933 64.9646 79.424C65.1945 81.6546 62.4636 94.1327 61.5376 97.6882C60.6115 101.244 60.2262 101.947 58.0023 102.812C55.7785 103.677 51.9052 103.082 51.9052 103.082C51.9052 103.082 53.2572 104.11 56.353 104.042C59.4489 103.981 61.0914 102.102 61.8282 101.595C62.565 101.088 63.268 97.3638 63.9372 93.7609C64.6131 90.1581 66.5599 81.1342 66.8438 79.6471C67.1277 78.16 65.2147 75.3548 60.233 73.7798Z" fill="#121721"/>
<path d="M76.7395 81.5464C76.7395 81.5464 76.7531 86.5214 74.6238 96.4985C73.9276 99.7565 73.4882 104.603 68.7498 104.056C65.7148 103.339 60.3139 101.96 60.3139 101.96L60.1179 102.569C60.1179 102.569 64.2006 104.103 66.9112 104.745C69.6218 105.38 71.9268 105.428 73.2449 103.873C74.563 102.318 76.5773 93.1795 77.0437 88.6371C77.5034 84.088 78.6254 82.9253 76.7395 81.5464Z" fill="#121721"/>
<path d="M83.6678 89.4415C83.6678 89.4415 81.4845 101.041 80.7139 104.495C79.9433 107.949 77.787 108.916 74.414 111.112L75.5226 111.146C75.5226 111.146 80.7883 108.449 81.3899 105.218C81.9982 101.987 84.4316 89.1373 84.4316 89.1373C84.4316 89.1373 84.2897 89.0832 84.0329 89.1643C83.776 89.2522 83.6678 89.4415 83.6678 89.4415Z" fill="#121721"/>
<path d="M82.5996 117.068C82.5996 117.068 75.4413 111.356 72.0683 109.436C68.6953 107.517 65.8022 109.936 65.0316 111.978C64.261 114.019 63.362 114.945 65.5724 117.548C67.7827 120.15 72.3657 124.355 72.3657 124.355C72.3657 124.355 68.2897 126.518 66.5525 128.545C67.1744 126.213 70.3987 123.442 70.3987 123.442C70.3987 123.442 63.335 117.23 63.0375 115.371C62.7401 113.512 64.1596 111.816 65.3493 109.592C66.539 107.368 69.2428 107.361 72.9064 109.078C76.5701 110.795 82.5996 117.068 82.5996 117.068Z" fill="#121721"/>
<path d="M61.3003 260.207C49.6341 260.207 40.1768 250.75 40.1768 239.084C40.1768 227.418 49.6341 217.96 61.3003 217.96C72.9665 217.96 82.4238 227.418 82.4238 239.084C82.4238 250.75 72.9665 260.207 61.3003 260.207Z" fill="#992C29"/>
<path d="M58.0894 246.303C54.2479 246.303 51.1339 243.189 51.1339 239.348C51.1339 235.506 54.2479 232.392 58.0894 232.392C61.9308 232.392 65.0449 235.506 65.0449 239.348C65.0449 243.189 61.9308 246.303 58.0894 246.303Z" fill="#4B3355"/>
<path d="M41.2923 213.5C41.2923 213.5 42.6307 233.285 54.6627 243.715C66.6946 254.145 77.2598 257.889 77.2598 257.889" stroke="#856792" stroke-width="3" stroke-miterlimit="10"/>
<path d="M35.4047 212.431C35.4047 212.431 36.743 232.216 48.775 242.646C60.8069 253.076 71.3721 256.821 71.3721 256.821" stroke="#BB83C3" stroke-width="3" stroke-miterlimit="10"/>
<path d="M38.6156 223.929C38.6156 223.929 39.954 243.714 51.9859 254.144C64.0179 264.574 74.583 268.319 74.583 268.319" stroke="#665070" stroke-width="3" stroke-miterlimit="10"/>
<path d="M164.194 253.955C164.194 253.955 100.202 233.068 91.3333 230.527C82.8163 228.08 79.3554 229.479 78.3077 236.63C77.2735 243.674 73.7653 247.033 67.2694 247.844C61.0033 248.629 59.2931 248.405 58.0088 248.662C56.7245 248.919 55.9201 251.65 55.839 258.105C55.7647 264.297 53.6692 265.325 67.1004 273.625C81.4103 282.467 140.448 308.491 140.448 308.491C140.448 308.491 157.888 299.251 163.39 286.036C169.122 272.287 164.194 253.955 164.194 253.955Z" fill="#C94039"/>
<path d="M118.263 270.61C103.615 265.689 85.0668 257.071 79.943 257.659C74.9815 258.227 68.391 260.146 64.1933 260.038C60.0227 259.937 58.86 257.97 58.7857 262.972C58.7181 267.778 63.2267 268.799 73.7716 275.308C84.9789 282.223 136.426 303.468 136.426 303.468C136.426 303.468 144.057 295.093 145.125 284.717C145.706 278.979 133.154 275.612 118.263 270.61Z" fill="#EE5D4F"/>
<path d="M138.616 292.423C138.542 293.64 139.427 294.674 140.604 294.735C141.78 294.796 142.8 293.85 142.882 292.633C142.963 291.409 142.07 290.368 140.894 290.314C139.711 290.253 138.697 291.2 138.616 292.423Z" fill="#3E4C6F"/>
<path d="M149.032 300.832L55.9198 261.458" stroke="#1D2538" stroke-width="0.5" stroke-miterlimit="10"/>
<path d="M159.3 251.333C159.3 251.333 170.271 253.327 172.413 255.861C174.57 258.41 171.582 281.453 164.917 294.904C158.536 307.775 151.533 313.716 144.868 310.783C141.61 309.343 138.312 307.599 138.312 307.599C138.312 307.599 145.125 300.028 151.567 280.831C158.658 259.681 159.3 251.333 159.3 251.333Z" fill="#FEED7F"/>
<path d="M159.3 251.333C159.3 251.333 170.271 253.327 172.414 255.861C174.57 258.41 167.013 281.811 167.013 281.811C167.013 281.811 164.174 285.705 151.567 280.831C158.658 259.681 159.3 251.333 159.3 251.333Z" fill="#F7BC4B"/>
<path d="M61.3005 211.714C67.5396 211.714 70.48 216.23 70.48 216.23C70.48 216.23 71.0816 216.027 70.6828 211.836C69.2565 194.255 67.9249 155.664 67.7829 153.812C67.5531 150.811 66.208 147.877 61.6791 147.053C57.184 146.235 51.6209 146.235 51.0396 143.808C50.465 141.429 51.1004 137.468 47.2137 137.184C43.3337 136.9 38.0208 135.96 35.9185 137.948C33.0593 140.652 21.2639 191.727 19.7971 215.27C18.0734 242.943 40.2244 256.963 41.8804 254.408C43.5163 251.886 33.039 244.796 39.3659 227.417C43.0769 217.244 55.0615 211.714 61.3005 211.714Z" fill="#C94039"/>
<path d="M66.6943 182.304C66.6943 182.304 53.858 183.906 47.9772 180.702C42.0964 177.491 48.3084 152.555 48.3084 152.555L65.7548 156.232L66.6943 182.304Z" stroke="#1D2538" stroke-width="0.5" stroke-miterlimit="10"/>
<path d="M59.3603 209.781C66.7823 210.106 68.2491 210.768 67.8976 207.084C67.2757 193.984 31.2609 188.279 28.4963 188.367C25.076 188.475 21.365 202.272 22.433 219.387C23.501 236.502 32.8494 250.568 34.2013 234.359C34.9178 225.801 42.4074 209.045 59.3603 209.781Z" fill="#EE5D4F"/>
<path d="M42.583 136.664C41.5758 139.611 21.0134 201.555 32.2409 248.622" stroke="#1D2538" stroke-width="0.5" stroke-miterlimit="10"/>
<path d="M148.62 212.032C151.79 215.195 159.043 220.441 155.454 223.875C152.676 226.538 149.208 223.706 143.32 217.893C139.535 214.155 145.45 208.869 148.62 212.032Z" fill="#CC6D3D"/>
<path d="M151.188 220.042L149.357 223.152L144.138 217.839L151.188 220.042Z" fill="#F5894E"/>
<path d="M137.71 206.05C137.71 206.05 140.846 203.157 144.462 206.997C148.538 211.329 148.734 211.654 148.734 211.654L143.327 217.893C143.327 217.893 136.277 207.22 137.71 206.05Z" fill="#C94039"/>
<path d="M156.075 223.848C153.432 225.342 152.216 225.349 150.519 223.192C148.822 221.036 153.385 218.089 160.233 214.486C167.087 210.883 169.392 209.241 170.453 210.802C171.521 212.363 168.486 215.98 163.727 219.069C158.968 222.158 158.718 222.354 156.075 223.848Z" fill="#CC6D3D"/>
<path d="M156.522 223.307C153.879 224.801 152.696 223.99 152.696 223.99L154.541 221.239C154.541 221.239 169.46 214.878 164.701 217.967C159.942 221.057 159.165 221.814 156.522 223.307Z" fill="#F5894E"/>
<path d="M170.636 214.425C171.846 213.621 172.603 213.236 173.306 212.526C174.117 211.316 174.799 208.957 175.415 207.95C176.685 205.881 175.286 204.144 174.739 205.537C174.191 206.929 171.521 209.329 171.521 209.329L172.684 205.131L176.063 201.021C176.063 201.021 176.219 197.452 175.144 197.797C174.069 198.142 172.021 202.414 170.21 202.867C168.398 203.319 166.019 210.552 166.519 212.141C167.019 213.729 169.061 215.372 170.636 214.425Z" fill="#CC6D3D"/>
<path d="M155.015 241.646C155.015 241.646 156.421 246.763 145.457 244.904C134.493 243.045 114.485 238.178 114.485 238.178C114.485 238.178 148.302 233.366 155.015 241.646Z" fill="#EE5D4F"/>
<path d="M140.475 262.81L132.073 275.774L128.362 271.78L134.837 258.457L140.475 262.81Z" fill="#CC6D3D"/>
<path d="M149.465 240.273C150.202 240.456 154.568 241.287 150.418 248.216C145.632 256.205 144.483 257.997 140.38 263.066L134.689 258.848C134.689 258.848 137.927 250.737 139.488 246.134C141.414 240.456 148.728 240.091 149.465 240.273Z" fill="#1D2538"/>
<path d="M140.569 259.072C143.611 258.274 154.568 241.287 150.418 248.216C145.632 256.206 144.483 257.997 140.38 263.066L134.689 258.849C134.689 258.855 137.521 259.869 140.569 259.072Z" fill="#3E4C6F"/>
<path d="M132.404 274.335C132.404 274.335 134.263 281.939 132.242 282.784C130.221 283.629 127.098 273.571 128.362 271.78C129.626 269.988 132.404 274.335 132.404 274.335Z" fill="#CC6D3D"/>
<path d="M132.701 275.592C132.701 275.592 133.269 280.594 132.248 280.662C131.234 280.729 129.43 277.316 128.862 276.281C128.294 275.247 129.017 271.725 128.206 271.597C127.402 271.469 126.111 273.753 126.077 274.767C126.063 275.119 126.787 275.977 127.375 278.059C127.753 279.397 127.875 281.797 128.409 283.061C129.436 285.488 131.268 287.178 131.998 287.549C133.688 288.421 134.087 285.9 134.1 282.656C134.121 279.411 132.701 275.592 132.701 275.592Z" fill="#C94039"/>
<path d="M128.7 275.186C128.599 273.827 129.011 271.732 128.207 271.603C127.402 271.475 126.111 273.76 126.077 274.774C126.064 275.125 126.787 275.984 127.375 278.065C127.754 279.404 127.875 281.803 128.409 283.067C129.437 285.494 131.269 287.184 131.999 287.556C133.689 288.428 129.167 284.784 129.187 281.54C129.194 280.742 131.465 280.283 131.465 280.283C131.465 280.283 128.883 277.599 128.7 275.186Z" fill="#992C29"/>
<path d="M138.751 232.899C138.751 232.899 148.059 237.009 150.749 240.179C153.439 243.349 153.183 250.028 140.11 244.911C131.079 241.375 121.852 237.908 126.151 236.792C130.444 235.677 134.168 230.641 138.751 232.899Z" fill="#1D2538"/>
<path d="M139.028 282.96C139.028 282.96 140.711 285.873 141.421 287.523C142.036 288.962 143.253 290.869 143.483 291.984C143.976 294.39 143.787 295.722 142.753 295.85C141.719 295.979 138.954 295.073 137.393 293.356C136.514 292.39 134.81 287.861 134.466 285.691C134.189 284.001 136.061 278.864 139.028 282.96Z" fill="#C94039"/>
<path d="M137.399 289.476C138.298 293.83 143.787 295.729 142.753 295.851C141.718 295.979 138.954 295.073 137.392 293.356C136.514 292.39 133.756 286.414 133.404 284.245C133.134 282.548 134.418 281.081 134.79 280.723C135.155 280.371 140.265 285.434 137.399 289.476Z" fill="#992C29"/>
<path d="M137.507 268.346L138.42 281.156C138.42 281.156 141.455 289.679 140.65 289.713C139.846 289.747 137.007 287.726 135.479 284.576C134.493 282.528 131.924 271.408 130.923 268.576C127.571 259.039 137.217 260.505 137.507 268.346Z" fill="#F5894E"/>
<path d="M123.616 235.468C125.651 236.461 134.398 238.374 135.256 244.262C136.317 251.508 137.527 268.61 137.527 268.61L131.072 268.84C131.072 268.84 126.895 259.315 125.698 253.252C124.846 248.94 124.495 245.472 124.495 245.472C124.495 245.472 115.694 238.942 114.944 236.556C114.2 234.17 121.582 234.474 123.616 235.468Z" fill="#1D2538"/>
<path d="M136.209 253.272L136.77 259.539L137.534 268.617L131.072 268.84L135.642 263.878L136.209 253.272Z" fill="#3E4C6F"/>
<path d="M119.568 226.808C118.69 225.7 120.501 223.841 120.745 221.401C121.15 217.264 120.724 211.775 121.819 207.814C122.576 205.063 122.549 204.718 124.368 203.42C125.571 202.562 130.235 204.144 134.96 204.333C139.732 204.529 140.05 204.82 141.828 209.95C143.517 214.824 142.078 215.703 140.171 219.089C138.651 221.793 136.197 224.699 136.197 224.699C136.197 224.699 135.643 228.018 131.398 228.857C125.841 229.965 121.941 229.803 119.568 226.808Z" fill="#CE9436"/>
<path d="M138.697 198.702L136.805 204.685C136.805 204.685 135.777 207.328 133.77 207.348C131.762 207.368 130.518 204.827 130.694 204.205C130.87 203.583 133.175 196.357 133.175 196.357L138.697 198.702Z" fill="#CC6D3D"/>
<path d="M135.683 225.356C138.157 226.606 144.348 232.365 148.181 234.63C156.509 240.625 155.015 241.646 155.015 241.646C155.015 241.646 152.162 239.01 148.783 239.794C146.924 240.226 142.686 243.64 137.109 241.051C133.013 239.152 126.436 238.253 126.436 238.253C126.436 238.253 120.149 239.409 118.98 239.699C115.391 240.591 113.248 238.158 113.248 238.158C114.6 234.461 119.271 223.585 122.529 222.354C125.8 221.131 133.209 224.105 135.683 225.356Z" fill="#F7BC4B"/>
<path d="M118.986 239.706C115.424 240.672 113.254 238.164 113.254 238.164C115.215 232.304 118.858 226.531 118.858 226.531L115.83 236.164L118.986 239.706Z" fill="#CE9436"/>
<path d="M133.486 217.927C134.682 218.596 141.334 214.276 140.719 215.838C140.104 217.393 135.906 226.761 134.061 227.518C132.222 228.275 130.35 224.274 127.943 223.692C125.537 223.111 121.353 224.821 121.481 223.794C121.61 222.766 126.693 214.128 133.486 217.927Z" fill="#F7BC4B"/>
<path d="M136.44 238.327C138.454 239.49 142.584 240.206 142.584 240.206C142.584 240.206 137.839 237.732 134.026 231.824C134.02 231.824 134.425 237.164 136.44 238.327Z" fill="#CE9436"/>
<path d="M116.296 212.343C116.296 212.343 113.545 217.264 112.497 220.921C111.449 224.578 114.079 226.275 115.728 226.2C117.377 226.133 120.642 217.866 122.758 214.466C124.874 211.066 119.216 206.652 116.296 212.343Z" fill="#CC6D3D"/>
<path d="M122.832 215.507C122.832 215.507 128.125 206.53 124.15 203.894C120.183 201.251 116.729 210.065 115.863 212.607L122.832 215.507Z" fill="#C94039"/>
<path d="M109.097 239.077C109.097 239.077 116.803 227.964 117.945 223.99C119.088 220.015 114.322 219.4 112.585 220.948C110.855 222.489 106.752 233.784 105.886 236.596C105.021 239.408 107.36 240.456 109.097 239.077Z" fill="#CC6D3D"/>
<path d="M110.321 236.691C110.321 236.691 116.255 228.127 117.134 225.071C118.013 222.009 108.509 232.615 107.846 234.785C107.184 236.948 108.975 237.752 110.321 236.691Z" fill="#F5894E"/>
<path d="M109.313 237.523C109.313 237.523 109.678 240.26 109.178 242.052C108.995 242.863 107.488 243.025 106.291 243.228C105.095 243.43 103.892 243.403 103.209 243.356C102.533 243.309 101.566 242.545 103.79 242.004C104.743 241.774 106.731 240.869 106.731 240.869C106.731 240.869 107.028 238.949 107.461 237.982C108.17 236.38 109.313 237.523 109.313 237.523Z" fill="#CC6D3D"/>
<path d="M105.981 241.281C105.981 241.281 102.371 241.01 101.141 241.173C99.8364 241.348 97.3894 242.038 96.923 241.369C96.4701 240.706 98.0856 239.699 98.5994 239.658C99.0996 239.611 102.844 239.415 102.844 239.415C102.844 239.415 109.976 239.807 105.981 241.281Z" fill="#CC6D3D"/>
<path d="M107.157 239.273C107.157 239.273 103.263 237.867 102.567 237.772C101.85 237.678 96.9498 241.01 98.4909 241.004C99.9442 240.997 101.519 239.543 102.756 240.334C103.98 241.112 107.549 241.652 107.157 239.273Z" fill="#CC6D3D"/>
<path d="M107.453 237.982C107.453 237.982 104.79 236.799 104.094 237.063C103.364 237.34 100.721 239.462 102.316 239.462C103.81 239.469 107.284 241.7 107.453 237.982Z" fill="#CC6D3D"/>
<path d="M145.761 198.087C145.761 198.087 143.085 202.549 139.002 200.724C134.919 198.892 133.912 188.502 139.968 188.705C146.025 188.908 148.026 195.039 145.761 198.087Z" fill="#273252"/>
<path d="M142.841 184.149C140.8 181.946 140.036 179.113 135.575 180.039C135.575 180.039 131.005 178.559 126.618 181.696C121.36 185.461 123.354 190.916 123.354 190.916C123.354 190.916 117.567 196.729 124.496 200.615C127.835 202.488 133.953 200.615 136.636 199.757C142.618 197.851 144.883 186.353 142.841 184.149Z" fill="#273252"/>
<path d="M136.818 182.804C139.076 183.372 147.14 182.31 147.323 180.452C147.505 178.593 140.624 176.565 139.603 180.472C139.603 180.472 141.232 176.673 138.907 175.625C136.575 174.571 134.561 182.236 136.818 182.804Z" fill="#273252"/>
<path d="M144.869 190.666C145.829 199.433 140.246 201.528 134.203 200.751C129.66 200.169 129.025 197.283 129.275 191.551C129.525 185.819 131.776 181.547 136.346 181.229C142.382 180.81 144.248 184.974 144.869 190.666Z" fill="#CC6D3D"/>
<path d="M142.962 195.431C141.908 198.52 139.515 200.771 135.365 200.271C132.032 199.872 130.086 197.31 129.937 194.133C129.788 190.956 136.832 188.753 140.137 188.651C144.497 188.523 144.017 192.335 142.962 195.431Z" fill="#F5894E"/>
<path d="M128.234 192.659L132.087 192.463C132.087 192.463 132.256 185.454 136.697 183.771C141.361 182 143.49 184.987 143.49 184.987C143.49 184.987 141.266 178.992 134.372 181.506C128.89 183.5 128.234 192.659 128.234 192.659Z" fill="#F7BC4B"/>
<path d="M127.314 193.098C126.851 191.344 127.584 189.629 128.952 189.267C130.32 188.906 131.805 190.035 132.268 191.789C132.732 193.543 131.999 195.258 130.631 195.619C129.263 195.981 127.778 194.852 127.314 193.098Z" fill="#F5894E"/>
<path d="M137.832 187.272C137.832 187.272 139.008 186.495 139.766 186.502" stroke="#1D2538" stroke-width="0.25" stroke-miterlimit="10" stroke-linecap="round" stroke-linejoin="round"/>
<path d="M138.796 189.572C138.647 188.886 138.825 188.265 139.193 188.185C139.562 188.105 139.981 188.597 140.13 189.282C140.279 189.968 140.101 190.589 139.732 190.669C139.364 190.749 138.944 190.258 138.796 189.572Z" fill="#273252"/>
<path d="M143.144 189.006C143.084 188.374 143.227 187.843 143.465 187.82C143.703 187.797 143.945 188.291 144.006 188.923C144.066 189.555 143.922 190.086 143.684 190.109C143.447 190.131 143.205 189.638 143.144 189.006Z" fill="#273252"/>
<path d="M142.617 186.055C142.617 186.055 143.482 185.995 143.908 186.407" stroke="#1D2538" stroke-width="0.25" stroke-miterlimit="10" stroke-linecap="round" stroke-linejoin="round"/>
<path d="M128.024 195.1C128.024 195.1 132.046 193.383 134.392 196.08C136.737 198.777 132.966 205.557 128.383 203.096C123.8 200.649 124.942 196.1 128.024 195.1Z" fill="#273252"/>
<path d="M133.98 182.872C133.98 182.872 134.162 185.88 133.405 187.955C132.831 189.523 132.053 190.435 132.053 190.435L131.864 189.8L130.931 189.888C130.931 189.888 132.77 187.779 133.31 183.02L133.98 182.872Z" fill="#EE5D4F"/>
<path d="M133.939 182.541C133.939 182.541 135.143 185.305 135.143 187.509C135.143 189.178 134.723 190.3 134.723 190.3L134.331 189.766L133.486 190.165C133.486 190.165 134.487 187.556 133.372 182.892L133.939 182.541Z" fill="#EE5D4F"/>
<path d="M134.067 184.474C133.466 184.866 130.39 182.554 131.573 181.351C132.682 180.215 134.142 179.134 134.737 180.215C135.338 181.29 134.676 184.082 134.067 184.474Z" fill="#EE5D4F"/>
<path d="M132.153 183.312C132.153 183.312 131.241 181.946 131.633 181.629C132.025 181.311 132.167 182.129 132.802 182.994C133.431 183.874 132.552 183.88 132.153 183.312Z" fill="#F7BC4B"/>
<path d="M133.967 183.494C133.967 183.494 133.534 182.872 132.25 183.088C130.959 183.298 130.087 183.575 129.871 184.359C129.654 185.143 130.77 186.691 131.702 187.117C132.642 187.543 133.92 185.366 134.122 184.69C134.325 184.014 133.967 183.494 133.967 183.494Z" fill="#EE5D4F"/>
<path d="M130.634 185.732C130.634 185.732 131.499 186.996 132.162 186.712C133.148 186.293 130.729 184.63 130.377 184.339C130.032 184.049 129.762 185.062 130.634 185.732Z" fill="#F7BC4B"/>
<path d="M426.801 491.011C426.801 491.011 512.005 544.905 536.528 555.281C561.904 566.015 513.593 566.961 513.593 566.961C513.593 566.961 535.913 580.663 519.629 582.562C503.251 584.475 494.004 582.562 494.004 582.562C494.004 582.562 532.364 598.204 502.393 612.534C471.076 627.506 289.765 679.25 180.268 650.097C79.1249 623.16 76.9483 614.271 40.8389 616.319C4.50651 618.381 22.6085 601.976 35.3502 597.115C35.3502 597.115 -10.6619 600.353 2.30289 580.872C27.8674 542.458 47.2267 530.602 47.2267 530.602L426.801 491.011Z" fill="#1D2538"/>
<path d="M249.452 640.701C248.451 638.348 232.12 623.613 240.13 622.2C248.14 620.787 259.767 629.541 259.767 629.541C259.767 629.541 262.261 615.177 266.202 619.381C270.149 623.586 272.508 630.818 272.508 630.818C272.508 630.818 275.395 615.697 280.241 620.328C285.088 624.958 287.089 629.662 287.089 629.662C287.089 629.662 294.673 620.517 296.93 625.816C299.188 631.116 301.696 636.997 301.696 636.997C301.696 636.997 307.921 622.977 312.95 622.984C317.98 622.991 320.947 633.333 320.947 633.333C320.947 633.333 323.941 620.145 329.221 620.74C334.5 621.335 337.116 629.156 337.116 629.156C337.116 629.156 348.79 628.676 350.905 635.313C353.014 641.958 340.083 635.307 311.889 640.755C289.603 645.067 249.452 640.701 249.452 640.701Z" fill="#3E4C6F"/>
<path d="M458.989 601.935C458.989 601.935 476.489 588.943 471.96 588.328C467.344 587.7 461.794 594.155 461.794 594.155C461.794 594.155 462.024 583.475 457.394 587.936C452.824 592.33 448.599 607.444 448.599 607.444C448.599 607.444 453.588 586.774 447.045 593.905C440.671 600.854 438.372 609.33 438.372 609.33C438.372 609.33 419.04 583.333 410.097 593.614C401.472 603.531 407.522 609.526 407.522 609.526C407.522 609.526 401.222 594.621 395.483 603.693C389.961 612.419 415.735 627.459 458.989 601.935Z" fill="#3E4C6F"/>
<path d="M215.964 648.022C215.964 648.022 242.799 652.713 240.305 646.379C237.818 640.046 227.165 642.405 227.165 642.405C227.165 642.405 234.532 625.492 228.516 627.243C222.5 629.001 221.541 631.204 221.541 631.204C221.541 631.204 220.236 620.139 216.106 623.586C211.976 627.04 211.976 627.04 211.976 627.04C211.976 627.04 206.068 610.466 204.98 616.989C203.885 623.512 203.885 623.512 203.885 623.512C203.885 623.512 193.529 611.128 192.819 624.816C192.11 638.504 185.999 638.471 215.964 648.022Z" fill="#3E4C6F"/>
<path d="M186.27 618.712C186.27 618.712 178.247 605.072 177.449 609.087C176.645 613.095 179.855 623.525 179.855 623.525C179.855 623.525 166.215 606.68 163.011 613.9C159.8 621.119 168.628 627.54 168.628 627.54C168.628 627.54 146.166 613.9 146.97 619.517C147.775 625.134 174.245 641.979 188.683 637.166C203.115 632.353 186.27 618.712 186.27 618.712Z" fill="#3E4C6F"/>
<path d="M115.775 603.152C115.775 603.152 124.576 590.917 128.922 598.251C133.269 605.585 124.948 606.491 124.948 606.491C124.948 606.491 138.447 604.105 133.83 611.405C129.213 618.705 125.908 618.908 125.908 618.908C125.908 618.908 139.319 621.396 132.62 626.682C125.928 631.968 95.1992 617.286 85.5872 616.313C75.9752 615.346 77.6786 601.786 84.6274 603.895C91.5829 606.004 91.5829 606.004 91.5829 606.004C91.5829 606.004 86.1888 591.133 94.0704 592.593C101.959 594.06 101.959 594.06 101.959 594.06C101.959 594.06 111.699 581.183 115.775 603.152Z" fill="#3E4C6F"/>
<path d="M177.443 531.751C177.443 531.751 196.91 559.08 191.023 564.866C185.04 570.747 153.838 560.662 153.838 560.662C153.838 560.662 145.714 571.849 132.249 571.963C118.777 572.085 101.317 554.26 101.317 554.26C101.317 554.26 72.6971 569.327 65.309 566.961C57.9681 564.609 45.4292 543.864 45.4292 543.864C45.4292 543.864 19.1549 551.279 14.43 547.298C9.7592 543.364 59.9622 493.337 59.9622 493.337L78.3346 473.491L177.443 531.751Z" fill="#33A86D"/>
<path d="M109.99 523.112C110.01 524.593 114.701 617.61 114.701 617.61L87.8388 608.14L97.1602 518.705L109.99 523.112Z" fill="#4B3355"/>
<path d="M110.057 524.322C110.077 525.802 112.774 571.666 112.774 571.666L100.702 552.219L94.1046 546.338L95.8891 524.052L110.057 524.322Z" fill="#34283A"/>
<path d="M149.566 483.468L174.516 522.092C174.516 522.092 189.887 544.094 186.859 548.934C183.783 553.841 146.613 525.708 146.613 525.708C146.613 525.708 136.169 547.291 127.598 547.508C119.02 547.724 103.48 528.371 103.48 528.371C103.48 528.371 76.3811 542.708 68.0736 541.079C59.8 539.457 51.9251 515.258 51.9251 515.258C51.9251 515.258 39.1091 526.776 33.2012 521.314C27.388 515.941 65.2211 478.811 72.2105 468.658C78.9024 458.938 78.9024 458.938 78.9024 458.938L149.566 483.468Z" fill="#288453"/>
<path d="M141.948 442.64L142.063 444.37C144.334 450.211 168.108 491.275 168.108 491.275C168.108 491.275 168.648 504.104 161.612 503.739C154.589 503.374 137.196 490.45 137.196 490.45C137.196 490.45 122.028 510.776 110.287 508.356C98.6264 505.956 93.1174 485.475 93.1174 485.475C93.1174 485.475 74.8261 495.607 68.2694 491.092C61.8005 486.644 66.8364 479.27 66.8364 479.27C66.8364 479.27 54.1961 483.738 57.4947 478.756C60.7461 473.849 96.051 425.869 96.051 425.869C96.051 425.869 112.923 403.401 122.623 414.676C132.721 426.41 143.51 442.64 143.51 442.64" fill="#33A86D"/>
<path d="M142.049 430.865L142.158 432.278C144.348 437.043 169.047 479.757 169.047 479.757C169.047 479.757 164.809 485.847 160.55 485.536C156.292 485.225 137.493 469.786 137.493 469.786C137.493 469.786 119.709 486.496 111.713 484.306C103.784 482.129 97.9097 465.839 97.9097 465.839C97.9097 465.839 75.2517 473.788 72.2843 472.524C69.3236 471.267 71.1149 464.406 71.1149 464.406C71.1149 464.406 57.2984 469.056 60.32 465.048C63.2941 461.1 97.8353 417.163 97.8353 417.163C97.8353 417.163 114.045 398.751 123.413 407.998C133.154 417.61 143.55 430.872 143.55 430.872" fill="#288453"/>
<path d="M117.614 388.74C117.614 388.74 139.068 419.401 152.642 443.093C152.642 443.093 146.403 450.968 142.076 449.244C137.771 447.527 126.448 430.818 126.448 430.818C126.448 430.818 119.729 443.384 111.023 445.121C102.263 446.865 93.3268 435.232 93.3268 435.232C93.3268 435.232 76.7254 444.567 77.523 439.7C78.3003 434.907 116.181 391.491 117.614 388.74Z" fill="#FFFCF3"/>
<path d="M98.8834 557.207L99.681 572.092L98.3562 590.289L98.7955 607.661L93.9287 591.532L96.5852 576.641L95.1724 545.98L100.661 541.525L98.8834 557.207Z" fill="#34283A"/>
<path d="M104.088 589.477L105.515 597.676L101.946 605.166V596.25L102.662 584.13L104.088 589.477Z" fill="#34283A"/>
<path d="M255.082 479.635C255.082 479.635 187.339 582.616 203.386 588.234C219.433 593.851 253.873 574.559 253.873 574.559C253.873 574.559 263.221 594.506 280.769 597.251C298.316 599.995 309.28 580.744 309.28 580.744C309.28 580.744 352.332 587.429 361.16 579.676C369.981 571.923 341.909 536.091 341.909 536.091L288.312 474.342L255.082 479.635Z" fill="#33A86D"/>
<path d="M291.043 548.913L294.795 646.251L275.192 644.899L281.033 547.562L291.043 548.913Z" fill="#4B3355"/>
<path d="M291.63 545.446L293.232 589.653L288.886 586.625L278.706 585.821L279.93 543.817L291.63 545.446Z" fill="#34283A"/>
<path d="M258.294 475.221C258.294 475.221 194.112 555.49 208.199 560.844C222.286 566.191 257.084 548.65 257.084 548.65C257.084 548.65 271.245 564.805 283.98 566.204C296.715 567.603 312.492 553.435 312.492 553.435C312.492 553.435 347.256 569.82 358.483 556.646C369.718 543.472 307.679 467.894 307.679 467.894L258.294 475.221Z" fill="#288453"/>
<path d="M314.871 470.895C314.871 470.895 288.367 436.401 277.964 412.148C277.964 412.148 263.282 445.412 257.212 455.335C251.142 465.258 239.219 480.243 243.518 482.481C247.817 484.718 261.14 472.369 261.14 472.369C261.14 472.369 270.515 480.818 276.558 482.136C282.601 483.454 287.792 478.655 287.792 478.655C287.792 478.655 301.582 486.172 307.28 485.3C312.978 484.428 314.871 470.895 314.871 470.895Z" fill="#FFFCF3"/>
<path d="M284.858 581.988L286.994 598.927L286.102 609.269L286.284 621.389L284.142 610.155L284.676 599.461L281.472 581.636L284.858 581.988Z" fill="#34283A"/>
<path d="M289.487 590.903L290.562 618.002L289.487 625.492L291.988 616.042L291.63 600.887L289.487 590.903Z" fill="#34283A"/>
<path d="M283.074 622.457L280.931 633.509L279.505 643.317L279.688 632.082L282.006 623.349L282.358 614.974L283.074 622.457Z" fill="#34283A"/>
<path d="M463.39 484.036C473.969 499.008 520.136 518.908 531.587 530.622C543.058 542.364 545.214 550.387 533.682 556.315C522.056 562.284 501.277 547.203 501.277 547.203C501.277 547.203 504.495 566.238 491.895 572.612C465.364 586.03 447.208 570.422 447.208 570.422C447.208 570.422 451.264 588.504 439.09 591.012C426.835 593.533 412.701 582.137 412.701 582.137C412.701 582.137 393.868 609.864 381.559 609.824C369.189 609.783 367.351 593.736 367.351 593.736C367.351 593.736 350.797 610.195 336.007 610.155C321.122 610.108 320.075 579.561 320.075 579.561C320.075 579.561 296.085 604.037 292.34 588.207C288.623 572.484 314.944 539.606 343.314 481.42C369.872 426.951 442.949 455.118 463.39 484.036Z" fill="#288453"/>
<path d="M401.623 502.131L392.977 619.294L425.68 625.296L413.661 495.405L401.623 502.131Z" fill="#665070"/>
<path d="M401.332 498.298L395.694 581.839L414.682 562.324L420.387 565.819L412.647 493.417L401.332 498.298Z" fill="#4B3355"/>
<path d="M478.418 489.065C478.418 489.065 545.546 538.159 536.029 542.228C526.451 546.325 489.564 523.876 489.564 523.876C489.564 523.876 490.801 556.444 470.637 559.925C450.264 563.44 434.217 540.829 434.217 540.829L415.338 537.929C415.338 537.929 394.768 579.399 386.481 579.298C372.976 579.136 378.606 557.309 378.606 557.309C378.606 557.309 356.144 584.503 339.989 584.313C323.733 584.124 328.863 555.639 328.863 555.639C328.863 555.639 310.653 578.061 297.702 577.615C284.683 577.162 318.967 521.598 346.803 469.996C371.685 423.876 428.586 450.955 478.418 489.065Z" fill="#33A86D"/>
<path d="M431.168 422.213C431.168 422.213 514.54 480.791 512.356 488.537C510.403 495.473 505.171 492.64 494.64 491.816C484.068 490.984 471.15 483.596 471.15 483.596C471.15 483.596 469.007 494.371 460.207 496.317C455.049 497.46 436.913 488.057 436.913 488.057C436.913 488.057 434.149 498.846 420.657 502.719C410.984 505.49 390.428 490.349 390.428 490.349C390.428 490.349 386.616 515.481 373.942 515.264C361.2 515.041 345.829 475.789 345.829 475.789L320.109 496.574C320.109 496.574 348.167 421.483 363.512 389.693C378.484 358.673 431.168 422.213 431.168 422.213Z" fill="#288453"/>
<path d="M359.192 464.419C359.192 464.419 365.107 500.278 353.987 506.389C342.78 512.547 346.052 492.207 346.052 492.207C346.052 492.207 329.768 511.688 325.719 506.281C321.677 500.88 330.397 489.564 330.397 489.564C330.397 489.564 315.735 504.233 322.846 486.908C329.971 469.549 331.85 467.738 331.85 467.738L359.192 464.419Z" fill="#288453"/>
<path d="M436.73 423.389C453.095 438.753 501.385 470.232 499.337 477.621C497.276 485.049 464.127 457.159 464.127 457.159C464.127 457.159 477.626 481.494 468.838 481.304C460.051 481.115 440.489 472.382 440.489 472.382C440.489 472.382 433.52 491.694 421.177 490.964C408.847 490.234 387.535 472.328 387.535 472.328C387.535 472.328 376.997 492.174 365.505 490.619C354.041 489.064 347.68 466.643 347.68 466.643C347.68 466.643 319.203 502.637 323.042 486.367C326.097 473.409 374.996 364.662 374.996 364.662C374.996 364.662 420.575 408.22 436.73 423.389Z" fill="#33A86D"/>
<path d="M375.51 354.408L447.979 422.443C447.979 422.443 443.808 425.16 435.832 425.106C427.828 425.045 419.447 414.426 419.447 414.426C419.447 414.426 424.138 426.485 415.31 427.722C406.448 428.966 397.701 413.007 397.701 413.007C397.701 413.007 384.655 433.157 373.712 432.217C362.727 431.271 365.411 417.995 365.411 417.995C354.224 430.946 333.344 456.923 333.682 445.628C334.02 434.4 362.22 384.022 375.51 354.408Z" fill="#F3E7D9"/>
<path d="M442.192 525.532C442.192 525.532 445.22 546.588 434.148 550.651C427.328 553.152 421.737 542.33 413.991 532.265C410.611 527.871 412.247 519.144 417.459 519.449L442.192 525.532Z" fill="#33A86D"/>
<path d="M402.351 572.491L398.221 584.124L397.964 597.873L395.592 615.495L400.702 603.281L401.047 587.071L404.758 571.734L402.351 572.491Z" fill="#4B3355"/>
<path d="M400.736 611.23L403.926 612.548L403.23 619.787L406.488 613.819L406.346 588.092L400.736 611.23Z" fill="#4B3355"/>
<path d="M410.275 559.35L405.55 564.163L409.829 599.995L412.715 587.801L410.275 559.35Z" fill="#4B3355"/>
<path d="M269.331 525.776C209.287 436.395 198.343 438.767 198.343 438.767C198.343 438.767 94.5842 568.78 106.102 575.769C126.07 587.882 157.691 562.196 157.691 562.196C157.691 562.196 147.423 587.152 159.53 589.843C171.717 592.546 202.317 583.428 202.317 583.428C202.317 583.428 213.599 601.435 229.058 604.822C244.652 608.235 260.936 564.028 260.936 564.028C260.936 564.028 282.661 587.517 302.865 574.343C309.084 568.53 284.074 547.717 269.331 525.776Z" fill="#288453"/>
<path d="M206.103 524.911L207.597 643.547L180.924 637.612L197.471 515.988L206.103 524.911Z" fill="#665070"/>
<path d="M194.997 580.156L192.692 595.656L193.956 610.716L194.051 625.026L195.7 614.184L194.423 594.392L194.997 580.156Z" fill="#4B3355"/>
<path d="M202.365 555.876L198.674 572.572L200.235 596.109L203.162 631.211L203.703 614.974L202.743 593.209L201.101 571.659L202.365 555.876Z" fill="#4B3355"/>
<path d="M197.411 604.274L198.729 631.211L203.406 640.83L200.838 625.959L197.411 604.274Z" fill="#4B3355"/>
<path d="M207.042 540.417L207.049 565.955L195.76 568.408L188.413 581.968L196.038 531.495L207.042 540.417Z" fill="#4B3355"/>
<path d="M257.962 490.113C212.011 416.542 201.277 430.108 201.277 430.108C201.277 430.108 138.623 512.061 127.963 528.459C115.464 547.677 110.287 549.874 118.459 554.585C126.733 559.357 163.903 537.943 163.903 537.943C163.903 537.943 170.71 552.361 185.196 555.139C199.789 557.945 210.111 545.216 210.111 545.216C210.111 545.216 230.68 564.177 243.584 562.75C256.441 561.331 255.785 541.613 255.785 541.613C255.785 541.613 289.569 557.377 300.919 557.938C312.288 558.506 269.162 508.046 257.962 490.113Z" fill="#33A86D"/>
<path d="M232.256 453.476L271.576 508.228C271.576 508.228 265.337 517.596 253.812 518.063C242.274 518.536 232.303 508.978 232.303 508.978C232.303 508.978 215.749 526.56 207.645 526.512C199.54 526.465 190.475 510.012 190.475 510.012C190.475 510.012 172.569 523.389 165.614 522.22C158.679 521.057 155.833 505.335 155.833 505.335C155.833 505.335 143.28 510.857 141.482 505.815C139.705 500.833 178.078 455.328 184.473 440.349C190.185 426.951 217.987 439.328 232.256 453.476Z" fill="#288453"/>
<path d="M227.7 442.985C242.396 464 270.164 491.681 266.493 496.777C262.769 501.948 257.801 496.291 249.649 495.973C241.503 495.655 230.452 479.007 230.452 479.007C230.452 479.007 216.02 500.569 206.428 500.745C196.83 500.921 189.752 478.959 189.752 478.959C189.752 478.959 171.563 499.366 165.378 497.115C159.233 494.885 160.18 480.818 160.18 480.818C160.18 480.818 152.825 488.821 148.573 487.152C144.342 485.482 185.791 433.136 185.791 433.136C185.791 433.136 213.911 423.261 227.7 442.985Z" fill="#33A86D"/>
<path d="M203.961 405.483L242.99 460.932L224.375 455.436C224.375 455.436 219.616 467.881 215.296 467.881C210.97 467.881 195.41 457.079 195.41 457.079C195.41 457.079 188.069 468.097 182.803 467.522C177.551 466.948 173.786 456.984 173.786 456.984C173.786 456.984 157.651 466.299 163.316 459.255C194.68 420.253 203.961 405.483 203.961 405.483Z" fill="#F3E7D9"/>
<path d="M3.89855 619.436C3.89855 619.436 32.0317 595.866 86.7838 608.79C141.536 621.714 182.6 647.569 250.276 642.249C317.953 636.93 388.678 624.763 435.062 607.269C481.445 589.782 527.836 592.824 547.608 598.907C567.379 604.991 548.344 603.213 529.62 606.417C510.897 609.621 482.966 621.721 472.32 627.041C472.32 627.041 504.57 619.733 504.259 623.242C503.948 626.743 402.609 676.601 341.523 679.156C264.884 682.367 198.215 669.936 123.691 643.324C66.5255 622.897 19.1075 615.63 3.89855 619.436Z" fill="#1D2538"/>
</svg>
